<?xml version="1.0" encoding="utf-8"?><!-- Uploaded to: SVG Repo, www.svgrepo.com, Generator: SVG Repo Mixer Tools -->
<svg version="1.1" id="Uploaded to svgrepo.com" xmlns="http://www.w3.org/2000/svg" xmlns:xlink="http://www.w3.org/1999/xlink" 
	 width="800px" height="800px" viewBox="0 0 32 32" xml:space="preserve">
<style type="text/css">
	.puchipuchi_een{fill:#111918;}
</style>
<path class="puchipuchi_een" d="M8,16c0,1.105-0.895,2-2,2s-2-0.895-2-2c0-1.105,0.895-2,2-2S8,14.895,8,16z M30.973,3.329
	l-1.025,6.153c-0.546,3.273-2.512,6.096-5.393,7.742L21,19.272V24c0,4.411-3.589,8-8,8s-8-3.589-8-8v-4.141
	C3.278,19.412,2,17.862,2,16c0-2.209,1.791-4,4-4c2.209,0,4,1.791,4,4c0,1.862-1.278,3.412-3,3.859V24
	c0,1.796,0.797,3.406,2.051,4.506C9.03,28.339,9,28.173,9,28c0-2.206,1.794-4,4-4s4,1.794,4,4c0,0.173-0.03,0.339-0.051,0.506
	C18.203,27.406,19,25.796,19,24v-4.76l-3.555-2.016c-2.881-1.646-4.847-4.469-5.393-7.742L9.027,3.329
	C8.931,2.748,9.094,2.156,9.474,1.707C9.854,1.258,10.411,1,11,1h1.277C12.624,0.405,13.262,0,14,0c1.105,0,2,0.895,2,2
	c0,1.105-0.895,2-2,2c-0.738,0-1.376-0.405-1.723-1H11.59c-0.309,0-0.544,0.277-0.493,0.582l0.929,5.571
	c0.444,2.667,2.064,4.992,4.412,6.334l1.853,1.059C18.811,16.844,19.4,17,20,17s1.189-0.156,1.71-0.454l1.852-1.058
	c2.348-1.342,3.969-3.668,4.413-6.336l0.928-5.57C28.954,3.277,28.719,3,28.41,3h-0.687C27.376,3.595,26.738,4,26,4
	c-1.105,0-2-0.895-2-2c0-1.105,0.895-2,2-2c0.738,0,1.376,0.405,1.723,1H29c0.589,0,1.146,0.258,1.526,0.707
	C30.906,2.156,31.069,2.748,30.973,3.329z M6,19c1.654,0,3-1.346,3-3c0-1.654-1.346-3-3-3c-1.654,0-3,1.346-3,3
	C3,17.654,4.346,19,6,19z M15,28c0-1.103-0.897-2-2-2s-2,0.897-2,2s0.897,2,2,2S15,29.103,15,28z"/>
</svg>