<?xml version="1.0" encoding="iso-8859-1"?>
<!-- Uploaded to: SVG Repo, www.svgrepo.com, Generator: SVG Repo Mixer Tools -->
<!DOCTYPE svg PUBLIC "-//W3C//DTD SVG 1.1//EN" "http://www.w3.org/Graphics/SVG/1.1/DTD/svg11.dtd">
<svg fill="#000000" version="1.1" id="Capa_1" xmlns="http://www.w3.org/2000/svg" xmlns:xlink="http://www.w3.org/1999/xlink" 
	 width="800px" height="800px" viewBox="0 0 590.249 590.249"
	 xml:space="preserve">
<g>
	<g>
		<path d="M298.415,0.83c-1.439-1.114-3.763-1.104-5.202,0.014l-60.583,47.105c-1.439,1.114-2.218,0.545-2.218-1.277V15.537
			c0-1.822-2.252-3.156-4.074-3.156h-42.768c-1.822,0-2.95,1.334-2.95,3.156v69.266c0,1.821-1.334,4.188-2.773,5.302L12.802,217.478
			c-1.439,1.114-1.219,1.937,0.602,1.937h74.741c1.822,0,3.38,1.616,3.38,3.423v363.614c0,1.822,1.382,3.797,3.204,3.797h403.102
			c1.822,0,3.844-1.984,3.844-3.797v-363.6c0-1.822,0.919-3.423,2.726-3.423h72.397c1.812,0,2.123-0.836,0.688-1.951L298.415,0.83z
			 M369.588,186.075c15.137,0,27.406,12.273,27.406,27.406s-12.27,27.406-27.406,27.406c-15.138,0-27.406-12.269-27.406-27.406
			C342.182,198.343,354.451,186.075,369.588,186.075z M220.671,186.075c15.137,0,27.406,12.273,27.406,27.406
			s-12.269,27.406-27.406,27.406c-15.138,0-27.406-12.269-27.406-27.406C193.265,198.343,205.534,186.075,220.671,186.075z
			 M429.731,397.229c-7.884,0-14.276-6.388-14.281-14.271c-0.005-0.005-0.02-87.216-0.02-87.216c0-0.822-0.664-1.487-1.486-1.487
			h-3.026c-0.822,0-1.487,0.665-1.487,1.487c0,0,0,244.667,0,244.695c0,10.17-8.248,18.417-18.417,18.417
			c-10.17,0-18.418-8.247-18.418-18.417c0-0.028,0-143.973,0-143.973c0-1.052-0.487-1.487-1.521-1.487h-2.969
			c-1.038,0-1.521,0.44-1.521,1.487c0,0,0,143.949,0,143.973c0,10.17-8.248,18.417-18.417,18.417
			c-10.17,0-18.418-8.247-18.418-18.417c0-0.028,0-244.695,0-244.695c0-0.822-0.664-1.487-1.486-1.487h-3.027
			c-0.822,0-1.486,0.665-1.486,1.487c0,0-14.296,87.211-14.301,87.216c-0.445,2.648-1.272,4.938-2.377,6.875
			c-1.975,3.639-5.326,6.402-9.662,7.062c-0.545,0.082-1.086,0.13-1.626,0.148c-0.215,0.01-0.436,0-0.65,0.005
			c-0.215,0-0.435,0.01-0.65-0.005c-0.535-0.019-1.08-0.066-1.625-0.148c-4.337-0.654-7.688-3.418-9.663-7.062
			c-1.109-1.932-1.932-4.222-2.376-6.875c-0.005-0.005-14.301-87.216-14.301-87.216c0-0.822-0.665-1.487-1.487-1.487h-3.026
			c-0.823,0-1.487,0.665-1.487,1.487c0,0,0,244.667,0,244.695c0,10.17-8.248,18.417-18.417,18.417
			c-10.169,0-18.417-8.247-18.417-18.417c0-0.028,0-143.973,0-143.973c0-1.052-0.488-1.487-1.521-1.487h-2.969
			c-1.038,0-1.521,0.44-1.521,1.487c0,0,0,143.949,0,143.973c0,10.17-8.248,18.417-18.417,18.417
			c-10.169,0-18.417-8.247-18.417-18.417c0-0.028,0-244.695,0-244.695c0-0.822-0.665-1.487-1.487-1.487h-3.026
			c-0.822,0-1.487,0.665-1.487,1.487c0,0-0.015,87.211-0.02,87.216c-0.004,7.884-6.397,14.271-14.281,14.271
			c-7.889,0-14.282-6.397-14.282-14.281c0-0.043,0-98.06,0-99.231c0-19.545,15.037-34.578,33.827-34.578c0.478,0,80.712,0,81.186,0
			c18.795,0,31.384,14.889,33.827,34.578c0.005,0.029,0.015,0.125,0.033,0.249c0.02-0.129,0.029-0.225,0.033-0.249
			c2.443-19.689,15.037-34.578,33.828-34.578c0.478,0,80.712,0,81.186,0c18.795,0,33.827,15.037,33.832,34.578
			c0.005,1.171,0.005,99.188,0.005,99.231C444.013,390.832,437.616,397.229,429.731,397.229z"/>
	</g>
</g>
</svg>